Coordinates
nRows=4
nColumns=38

# SIMM Motion File Header:
name Coordinates
datacolumns 38
datarows 4
otherdata 1
range 2.04999999999999980000 2.05299999999999990000

Units are S.I. units (second, meters, Newtons, ...)
Angles are in degrees.

endheader
time	pelvis_tilt	pelvis_list	pelvis_rotation	pelvis_tx	pelvis_ty	pelvis_tz	hip_flexion_r	hip_adduction_r	hip_rotation_r	knee_angle_r	ankle_angle_r	subtalar_angle_r	mtp_angle_r	hip_flexion_l	hip_adduction_l	hip_rotation_l	knee_angle_l	ankle_angle_l	subtalar_angle_l	mtp_angle_l	lumbar_extension	lumbar_bending	lumbar_rotation	arm_flex_r	arm_add_r	arm_rot_r	elbow_flex_r	pro_sup_r	wrist_flex_r	wrist_dev_r	arm_flex_l	arm_add_l	arm_rot_l	elbow_flex_l	pro_sup_l	wrist_flex_l	wrist_dev_l
      2.04999999999999980000	     -2.84152960581564120000	      5.54957990146199180000	      0.00553058531806740160	      0.77519150785566759000	      0.96852638550771186000	     -0.47035713872275720000	     25.87086070604654300000	     -6.49821316060742850000	     -4.68101549645622940000	    -77.68601522668331000000	     -1.17535019014995320000	      0.00000000000015206948	     -0.00000000000014682492	     10.97789210872156600000	      4.65179319494735920000	     -5.84910112616196900000	    -35.47455337334514500000	     12.45477636049242600000	     -0.00000000000003801992	      0.00000000000004052041	     -7.62361176366991260000	     -5.27095997578789890000	    -12.69622758552895400000	    -19.86865184461068900000	    -20.19591481876902300000	     12.02723481435247200000	     92.86147454344985900000	     81.43129303288709800000	      0.00000000000006247932	     -0.00000000000002878404	    -12.23977328036069200000	    -36.03029847753603600000	     22.49527366563650000000	    112.75051614529863000000	     76.08038381632478300000	      0.00000000000000011189	     -0.00000000000000100893
      2.05100000000000020000	     -2.79465836119323980000	      5.50292559724734340000	     -0.00246903600980058520	      0.77502863520855547000	      0.96892755324957136000	     -0.47028709247364187000	     25.92098769808560400000	     -6.43089106569488860000	     -4.69062258769931170000	    -77.46733250878629900000	     -1.12978758124885940000	      0.00000000000015260236	     -0.00000000000014734447	     10.74030749934038000000	      4.60531885474069200000	     -5.82892055304420880000	    -35.32389660446439400000	     12.34993554616410300000	     -0.00000000000003787850	      0.00000000000004088924	     -7.71149120830542150000	     -5.21254702543922030000	    -12.80534917709707100000	    -19.93734023827739000000	    -20.29750708710685500000	     12.04443928912828800000	     92.98232070672332800000	     81.29210909041911700000	      0.00000000000006261754	     -0.00000000000002882329	    -12.08910274875062600000	    -36.01760265429071200000	     22.48180776034758200000	    112.87080795810121000000	     76.11953244885629000000	      0.00000000000000010822	     -0.00000000000000076614
      2.05200000000000000000	     -2.74817440890492600000	      5.45525499733349760000	     -0.01084402760902618300	      0.77487035125856873000	      0.96933812001412689000	     -0.47021469787569264000	     25.96875953050614100000	     -6.36176921989305730000	     -4.70000967074863140000	    -77.24235464243113800000	     -1.08540948499150300000	      0.00000000000015314002	     -0.00000000000014786347	     10.50108751275848100000	      4.55787925783300010000	     -5.80851980692328240000	    -35.16909556710963600000	     12.24147702234127500000	     -0.00000000000003773873	      0.00000000000004126794	     -7.79828833629436960000	     -5.15278220735836530000	    -12.91347351943761100000	    -20.00564937752576700000	    -20.39975807024628200000	     12.06216720388457600000	     93.10346866028059800000	     81.15402676002099700000	      0.00000000000006275701	     -0.00000000000002886448	    -11.93990839759549500000	    -36.00563657922375400000	     22.46798492407954800000	    112.99243670884999000000	     76.15788029988125600000	      0.00000000000000010415	     -0.00000000000000051697
      2.05299999999999990000	     -2.70215414865640290000	      5.40660106851143050000	     -0.01960086878320194800	      0.77471669860776593000	      0.96975777233076477000	     -0.47013998168982069000	     26.01426233598120100000	     -6.29091833060113890000	     -4.70917527276268900000	    -77.01115854798905500000	     -1.04223572418612780000	      0.00000000000015367921	     -0.00000000000014838295	     10.26037925284412500000	      4.50949994249971200000	     -5.78792743723427530000	    -35.01028460343416500000	     12.12939250688208000000	     -0.00000000000003760576	      0.00000000000004163966	     -7.88389983005684150000	     -5.09170384995040060000	    -13.02054892719843900000	    -20.07362001873574500000	    -20.50263269478123000000	     12.08035933906614900000	     93.22483493618374000000	     81.01753502150755500000	      0.00000000000006289645	     -0.00000000000002890669	    -11.79220354271069300000	    -35.99437482912678400000	     22.45381702222423600000	    113.11534299976613000000	     76.19546826341262100000	      0.00000000000000009944	     -0.00000000000000026938
